<svg xmlns="http://www.w3.org/2000/svg" xml:space="preserve" width="800" height="800" viewBox="0 0 298.182 298.182"><path d="M124.172 0c-3.115 0-5.893.245-8.212.805C97.082 5.36 64.32 32.051 55.423 41.162c-4.271 4.376-2.577 13.114 5.925 13.114 3.675 0 8.62-1.632 14.905-5.952 11.489-7.898 25.556-11.376 38.407-11.376 10.448 0 20.092 2.297 26.903 6.383 3.374 2.024 3.363 2.701 1.406 2.701-3.931 0-15.718-2.728-23.707-2.728-3.93 0-6.94.66-7.645 2.63-3.254 9.114 9.363 12.048 22.557 17.388 9.66 3.911 21.447 6.863 32.674 6.863 4.681 0 9.3-.514 13.591-1.684 19.487-5.314 32.575-9.314 37.575-10.614V6.743c-9 2.95-17.312 5.778-22.602 5.778C185.705 12.521 146.41 0 124.172 0zM125.939 242.182h-1.032c-3.751 0-7.892-3.963-7.892-7.87v-56.694c0-3.882 3.641-7.032 7.016-7.072l14.379.004c-5.797-4.499-9.325-10.646-9.325-18.346 0-9.206 5.462-17.26 13.259-21.021h-19.529c8.443-5.435 14.041-14.91 14.041-25.697 0-8.89-3.8-16.889-9.859-22.472a30.431 30.431 0 0 0-20.69-8.08c-.756 0-1.503.037-2.245.091-15.824 1.15-28.306 14.343-28.306 30.461 0 10.787 5.597 20.262 14.04 25.697H67.015v.139c-4 .715-9 4.305-9 8.928v75.72c0 5.176 5.816 10.214 10.993 10.214h.376c4.466 0 7.631-3.486 8.631-7.768v65.887c0 7.651 6.853 13.881 14.503 13.881h.442c7 0 12.771-5.196 13.705-11.94.933 6.744 6.705 11.94 13.702 11.94h.442c4.061 0 7.205-1.787 10.205-4.571v-55.491c-.999 1.96-2.671 4.06-5.075 4.06zM180.114 80.77c-7.633 5.554-12.6 14.552-12.6 24.715 0 10.787 5.598 20.262 14.041 25.697h-19.43c7.784 3.747 13.164 11.757 13.164 20.952 0 7.698-3.77 13.918-9.566 18.417l14.672.031c4.5.403 6.62 3.848 6.62 7.52v57.175c0 3.908-2.722 7.904-6.632 7.904h-.283c-2.761 0-5.085-2.334-7.085-4.686v55.612c3 2.499 6.727 4.074 10.546 4.074h.442c6.997 0 12.77-5.196 13.703-11.94.933 6.744 6.705 11.94 13.704 11.94h.442c7.649 0 13.162-6.23 13.162-13.881v-65.887c1 4.281 5.506 7.768 9.972 7.768h.376c5.176 0 9.652-5.038 9.652-10.214v-75.72c0-4.846-4-8.564-9-9.018v-.048H214.574c8.443-5.435 14.04-14.91 14.04-25.697 0-16.106-12.463-29.291-28.27-30.458a30.738 30.738 0 0 0-2.28-.094 30.407 30.407 0 0 0-17.95 5.838z"/></svg>