<svg xmlns="http://www.w3.org/2000/svg" width="800" height="800" viewBox="0 -1.99 28.119 28.119"><path d="M27.774 17.787v-4.021c0-.935-.014-3.164-2.37-3.806l-1.293-5.9c-.235-1.084-.637-2.318-2.958-2.318h-4.107V-.004h-5.97v1.746h-4.11c-2.322 0-2.722 1.234-2.959 2.318l-1.293 5.9C.359 10.602.345 12.831.345 13.766v4.021a1.01 1.01 0 0 0-.345.758v.342a1.03 1.03 0 0 0 1.032 1.031h.806v1.926c.1 2.287.714 2.287 2.317 2.287s2.21 0 2.315-2.287v-1.926h15.176v1.926c.106 2.287.714 2.287 2.315 2.287s2.213 0 2.32-2.287v-1.926h.806a1.03 1.03 0 0 0 1.031-1.031v-.342a1.013 1.013 0 0 0-.344-.758Zm-21.86-13c.185-.848.65-1.025 1.52-1.025h13.251c.87 0 1.335.177 1.521 1.025l1.011 4.619a49.707 49.707 0 0 0-9.159-.693 49.682 49.682 0 0 0-9.157.693Zm-2.782 9.049a1.385 1.385 0 1 1 1.384-1.385 1.382 1.382 0 0 1-1.384 1.387Zm4.085 0a1.385 1.385 0 1 1 1.386-1.385 1.385 1.385 0 0 1-1.386 1.387Zm13.684 0a1.385 1.385 0 1 1 1.385-1.385 1.384 1.384 0 0 1-1.385 1.387Zm4.086 0a1.385 1.385 0 1 1 1.383-1.385 1.384 1.384 0 0 1-1.383 1.387Z" data-name="Path 20"/></svg>